<svg width="33" height="47" viewBox="0 0 33 47" fill="none" xmlns="http://www.w3.org/2000/svg">
<path d="M30.2902 0H2.07261C0.92881 0 0 0.928089 0 2.07277V44.1003C0 45.245 0.92889 46.173 2.07261 46.173H22.7649C28.066 46.173 32.3631 41.8757 32.3631 36.5755V2.07277C32.3631 0.928089 31.4342 0 30.2902 0ZM3.9075 6.46301C3.9075 5.52299 4.66974 4.76171 5.60911 4.76171H26.7537C27.6931 4.76171 28.4552 5.52299 28.4552 6.46301V18.4198C28.4552 19.3599 27.6931 20.1211 26.7537 20.1211H5.6092C4.66982 20.1211 3.90758 19.3599 3.90758 18.4198L3.9075 6.46301ZM14.2606 34.4359C14.2606 34.8087 13.9584 35.1109 13.5858 35.1109H11.0861V37.6105C11.0861 37.9833 10.784 38.2855 10.4112 38.2855H7.14384C6.77109 38.2855 6.46885 37.9834 6.46885 37.6105V35.1109H3.96961C3.59677 35.1109 3.29454 34.8087 3.29454 34.4359V31.1684C3.29454 30.7957 3.59677 30.4934 3.96961 30.4934H6.46901V27.9938C6.46901 27.621 6.77125 27.3189 7.144 27.3189H10.4116C10.7843 27.3189 11.0864 27.6209 11.0864 27.9938V30.4934H13.5861C13.9587 30.4934 14.261 30.7955 14.261 31.1684V34.4358L14.2606 34.4359ZM21.4104 39.2471C20.0291 39.2471 18.9095 38.1274 18.9095 36.7461C18.9095 35.3648 20.0291 34.245 21.4104 34.245C22.7918 34.245 23.9114 35.3646 23.9114 36.7461C23.9116 38.1274 22.7918 39.2471 21.4104 39.2471ZM26.0277 31.5517C24.6463 31.5517 23.5269 30.4321 23.5269 29.0507C23.5269 27.6693 24.6463 26.5496 26.0277 26.5496C27.4092 26.5496 28.5288 27.6691 28.5288 29.0507C28.5288 30.432 27.4092 31.5517 26.0277 31.5517Z" fill="#A5A5A5"/>
</svg>
