<svg xmlns="http://www.w3.org/2000/svg" width="30" height="27" fill="none"><path fill="#A5A5A5" d="M24.83 18.55c0 4.75-4.48 8.45-9.6 8.45-6.06 0-10.31-3.18-10.31-7.93 0-4.74 4.6-9.27 10.02-9.27s9.89 4 9.89 8.75Z"/><path fill="#A5A5A5" d="M6.14 6c1.63 3.12 3.08 9.5 2.42 9.87-.66.38-4.79-4.49-6.42-7.61S-.36 0 .14 0c.7 0 4.37 2.88 6 6Z"/><path fill="#A5A5A5" d="M6.14 6c1.63 3.12 3.08 9.5 2.42 9.87-.66.38-4.79-4.49-6.42-7.61S-.36 0 .14 0c.7 0 4.37 2.88 6 6ZM23.58 6c-1.63 3.12-3.08 9.5-2.42 9.87.67.38 4.8-4.49 6.42-7.61 1.63-3.12 2.5-8.26 2-8.26-.69 0-4.37 2.88-6 6Z"/><path fill="#A5A5A5" d="M23.58 6c-1.63 3.12-3.08 9.5-2.42 9.87.67.38 4.8-4.49 6.42-7.61 1.63-3.12 2.5-8.26 2-8.26-.69 0-4.37 2.88-6 6Z"/></svg>