<svg width="25" height="25" viewBox="0 0 25 25" fill="none" xmlns="http://www.w3.org/2000/svg">
<path d="M21.275 3.725C16.415 -1.135 8.558 -1.135 3.725 3.725C-1.108 8.585 -1.135 16.442 3.725 21.275C8.585 26.108 16.442 26.135 21.275 21.275C26.108 16.415 26.108 8.585 21.275 3.725ZM9.935 9.962C11.339 8.558 13.634 8.558 15.038 9.962C16.442 11.366 16.442 13.661 15.038 15.065C13.634 16.469 11.339 16.469 9.935 15.065C8.531 13.661 8.531 11.366 9.935 9.962ZM19.952 19.979C15.821 24.11 9.152 24.11 5.021 19.979L8.747 16.253C10.799 18.305 14.147 18.305 16.199 16.253C18.251 14.201 18.251 10.853 16.199 8.801L19.952 5.048C24.083 9.179 24.083 15.848 19.952 19.979Z" fill="#A5A5A5"/>
</svg>
