<svg width="89" height="89" viewBox="0 0 89 89" fill="none" xmlns="http://www.w3.org/2000/svg">
<path d="M44.5 0.72499C35.8421 0.72499 27.3787 3.29235 20.1799 8.10241C12.9811 12.9125 7.37039 19.7492 4.05717 27.748C0.743943 35.7469 -0.122948 44.5486 1.56612 53.0401C3.25519 61.5316 7.42435 69.3315 13.5464 75.4536C19.6684 81.5756 27.4684 85.7448 35.9599 87.4339C44.4514 89.1229 53.2531 88.256 61.252 84.9428C69.2508 81.6296 76.0875 76.0188 80.8976 68.8201C85.7076 61.6213 88.275 53.1579 88.275 44.5C88.2797 38.75 87.1507 33.0556 84.9525 27.7424C82.7543 22.4292 79.53 17.6016 75.4642 13.5358C71.3983 9.46999 66.5707 6.24573 61.2576 4.04751C55.9444 1.84929 50.2499 0.720249 44.5 0.72499ZM44.5 11.025C50.3644 11.0076 56.1325 12.5162 61.2375 15.4025C60.465 16.4325 59.6925 17.4625 59.1775 18.235C57.6325 20.295 56.86 21.5825 55.83 22.0975C54.8 22.87 54.0275 22.87 51.195 23.1275C49.4802 23.1258 47.7944 23.5695 46.3025 24.415C43.8791 25.6793 41.9018 27.6566 40.6375 30.08C39.865 31.625 39.6075 33.4275 38.835 35.23C38.32 36.5175 37.805 37.805 36.775 38.835C35.23 40.38 35.23 37.5475 34.9725 36.26C34.0442 32.9461 32.5644 29.8122 30.595 26.99C30.0495 26.1027 29.3522 25.3183 28.535 24.6725C26.475 23.1275 23.9 23.9 21.5825 24.415C20.81 24.6725 17.205 24.93 16.69 25.445C22.87 16.9475 32.9125 11.025 44.5 11.025ZM44.5 77.975C40.1015 77.9838 35.7446 77.124 31.6792 75.4448C27.6139 73.7657 23.9201 71.3003 20.8099 68.1901C17.6997 65.0799 15.2343 61.3861 13.5552 57.3207C11.876 53.2554 11.0162 48.8985 11.025 44.5C11.013 42.1604 11.2722 39.8274 11.7975 37.5475L23.6425 34.715C24.93 37.29 25.7025 39.35 25.96 41.925C25.8863 43.2571 26.1521 44.5862 26.7325 45.7875C27.4136 47.5412 28.6897 48.9996 30.3375 49.9075C32.3975 51.195 34.715 51.4525 37.0325 51.195C38.8947 50.8758 40.6076 49.9743 41.925 48.62C44.2425 46.56 46.3025 43.7275 47.59 41.925C49.135 39.6075 49.3925 37.5475 49.65 36.0025C49.9075 33.9425 50.68 33.17 52.74 32.9125C55.977 33.0071 59.1516 32.0094 61.7525 30.08C64.3275 28.2775 66.13 25.7025 67.4175 23.9C68.024 22.9805 68.7136 22.1186 69.4775 21.325C75.1233 27.5199 78.2465 35.6033 78.2325 43.985C78.2604 48.2155 77.4736 52.4119 75.915 56.345C74.1601 55.8595 72.4396 55.2574 70.765 54.5425C68.19 53.77 65.3575 52.225 62.525 52.225C58.1475 51.9675 53.255 53.255 48.8775 53.77C43.985 54.285 44.2425 60.2075 45.2725 63.8125C45.7875 65.8725 46.8175 69.22 48.62 71.5375C49.8968 73.3293 51.4632 74.8957 53.255 76.1725C50.5044 77.409 47.5153 78.0244 44.5 77.975ZM65.8725 69.9925C64.3275 70.765 62.2675 69.9925 60.7225 69.22C59.2699 68.4092 58.0335 67.2611 57.1175 65.8725C56.7229 65.2127 56.3785 64.5241 56.0875 63.8125L62.01 63.04C63.2975 63.555 64.3275 63.8125 65.615 64.3275C66.9025 64.8425 69.22 65.1 70.25 66.13C70.765 66.13 66.3875 69.735 65.8725 69.9925Z" fill="#A5A5A5"/>
</svg>
